<svg width="163" height="40" viewBox="0 0 163 40" version="1.1" xmlns="http://www.w3.org/2000/svg" xmlns:xlink="http://www.w3.org/1999/xlink" xml:space="preserve" xmlns:serif="http://www.serif.com/" style="fill-rule:evenodd;clip-rule:evenodd;stroke-linejoin:round;stroke-miterlimit:2;">
    <g transform="matrix(0.367748,0,0,0.367748,-27.9452,-32.1228)">
        <path d="M487.7,87.35L456.12,92.79L424.53,87.35L413.48,117.26L392.95,141.73L413.48,166.2L424.53,196.12L456.12,190.68L487.7,196.12L498.75,166.2L519.29,141.73L498.75,117.26L487.7,87.35Z" style="fill:rgb(0,130,202);fill-rule:nonzero;"/>
        <path d="M346.2,152.03L350.98,121.85L351.14,121.85L355.92,152.03L346.2,152.03ZM358.74,169.82L367.83,169.82L358.11,114.48L344,114.48L334.2,169.82L343.37,169.82L344.94,159.86L357.17,159.86L358.74,169.82ZM284.81,169.82L293.6,169.82L293.6,134.23L306.93,169.82L315.79,169.82L315.79,114.48L307,114.48L307,149.13L293.83,114.48L284.81,114.48L284.81,169.82ZM254.56,169.82L263.65,169.82L263.65,114.48L254.56,114.48L254.56,169.82ZM219.51,169.82L228.61,169.82L228.61,122.71L235.74,122.71L235.74,114.48L212.38,114.48L212.38,122.71L219.51,122.71L219.51,169.82ZM181.27,170.76C187.93,170.76 192.48,168.41 194.44,164.18C195.46,161.99 195.62,160.34 195.62,155.17C195.62,149.53 195.46,147.64 194.37,145.29C192.88,141.92 189.59,139.96 184.96,137.84C181.2,136.27 178.38,135.25 177.43,133.14C176.88,131.89 176.8,130.79 176.8,127.81C176.8,124.52 176.88,124.13 177.11,123.34C177.66,122.01 178.99,121.22 180.95,121.22C182.83,121.22 184.16,121.93 184.79,123.34C185.18,124.28 185.26,125.14 185.26,130.94L194.43,130.94C194.43,123.34 194.19,121.93 193.25,119.81C191.37,115.66 187.37,113.54 181.1,113.54C174.83,113.54 170.67,115.81 168.79,119.89C167.85,122.01 167.61,123.65 167.61,128.28C167.61,133.14 167.85,135.41 168.86,137.61C170.27,140.9 173.41,142.94 177.56,144.9C181.32,146.55 184.22,147.57 185.32,150.07C185.87,151.32 186.03,152.42 186.03,155.71C186.03,159.32 185.95,159.94 185.64,160.73C185.01,162.14 183.52,162.92 181.41,162.92C179.22,162.92 177.88,162.14 177.18,160.57C176.79,159.63 176.71,158.85 176.71,152.89L167.07,152.89C167.07,160.57 167.31,162.14 168.32,164.26C170.14,168.33 174.37,170.76 181.27,170.76M192.08,102.49L184.55,102.49L181.26,107.35L178.12,102.49L170.44,102.49L176.32,111.27L186.28,111.27L192.08,102.49ZM127.26,169.82L148.58,169.82L148.58,161.59L136.35,161.59L136.35,144.66L148.34,144.66L148.34,136.51L136.35,136.51L136.35,122.71L148.58,122.71L148.58,114.48L127.26,114.48L127.26,169.82ZM91.98,170.69C96.45,170.69 100.05,169.44 102.48,167.08C105.77,164.1 106.95,159.79 107.03,151.87L97.62,151.87C97.62,158.3 97.07,159.87 95.82,160.96C94.88,161.82 93.55,162.37 91.74,162.37C89.07,162.37 87.27,161.27 86.33,159.08C85.62,157.36 85.39,155.55 85.39,142.15C85.39,128.67 85.63,126.94 86.33,125.22C87.27,123.1 89,121.93 91.66,121.93C93.54,121.93 94.72,122.48 95.74,123.34C96.99,124.52 97.54,126.08 97.54,132.35L106.95,132.35C106.87,124.43 105.77,120.28 102.4,117.22C99.73,114.87 96.29,113.61 91.9,113.61C84.92,113.61 80.3,116.51 77.87,121.84C76.38,125.13 75.99,128.5 75.99,142.14C75.99,155.78 76.38,159.15 77.87,162.44C80.3,167.86 85,170.69 91.98,170.69M102.72,102.49L95.19,102.49L91.9,107.35L88.76,102.49L81.08,102.49L86.96,111.27L96.92,111.27L102.72,102.49Z" style="fill:white;fill-rule:nonzero;"/>
        <path d="M444.67,142.47C446.25,136.85 447.12,132.57 447.12,126.48C447.12,121.26 447.04,119.67 446.17,117.85C444.82,114.84 442.05,113.34 437.62,113.34C433.58,113.34 430.49,114.45 429.15,117.46C428.2,119.76 428.12,121.42 428.12,130.6L435.48,130.6C435.48,123.32 435.48,122.37 435.72,121.73C436.04,120.94 436.59,120.62 437.46,120.62C438.41,120.62 438.89,121.02 439.12,121.57C439.36,122.2 439.44,122.28 439.44,127.98C439.44,133.37 439.2,134.55 437.22,141.36L428.91,169.7L428.91,169.86L447.04,169.86L447.04,162.5L439.04,162.5C440.87,155.77 442.77,149.12 444.67,142.47M460.39,165.9C460.39,163.13 458.57,161.47 456.03,161.47C453.42,161.47 451.6,163.13 451.6,165.9C451.6,168.67 453.42,170.26 456.03,170.26C458.56,170.26 460.39,168.67 460.39,165.9M476.28,141.91C476.28,160.83 476.28,161.39 475.96,162.18C475.64,162.9 475.01,163.21 474.06,163.21C473.11,163.21 472.48,162.89 472.16,162.18C471.84,161.39 471.84,160.84 471.84,141.91C471.84,122.99 471.84,122.44 472.16,121.64C472.48,120.93 473.11,120.61 474.06,120.61C475.01,120.61 475.64,120.93 475.96,121.64C476.28,122.44 476.28,122.99 476.28,141.91M484.12,141.91C484.12,123.07 484.04,120.85 482.85,118.24C481.35,114.84 478.5,113.33 474.06,113.33C469.63,113.33 466.78,114.83 465.27,118.24C464.08,120.85 464,123.07 464,141.91C464,160.75 464.08,162.97 465.27,165.58C466.77,168.98 469.62,170.49 474.06,170.49C478.49,170.49 481.34,168.99 482.85,165.58C484.04,162.97 484.12,160.75 484.12,141.91" style="fill:white;fill-rule:nonzero;"/>
    </g>
</svg>
